HIERARCHY
ROOT Hips
{
	OFFSET 0.00 0.00 0.00
	CHANNELS 6 Xposition Yposition Zposition Xrotation Yrotation Zrotation
	JOINT RightUpLeg
	{
		OFFSET -3.76699 0.00000 0.00000
		CHANNELS 3 Xrotation Yrotation Zrotation
		JOINT RightLeg
		{
			OFFSET 0.00000 -18.01768 0.00000
			CHANNELS 3 Xrotation Yrotation Zrotation
			JOINT RightFoot
			{
				OFFSET 0.00000 -16.88108 0.00000
				CHANNELS 3 Xrotation Yrotation Zrotation
				JOINT RightToeBase
				{
					OFFSET 0.00000 -1.49359 5.57418
					CHANNELS 3 Xrotation Yrotation Zrotation
					End Site
					{
						OFFSET 0.00000 0.00000 2.95275
					}
				}
			}
		}
	}
	JOINT LeftUpLeg
	{
		OFFSET 3.76699 0.00000 0.00000
		CHANNELS 3 Xrotation Yrotation Zrotation
		JOINT LeftLeg
		{
			OFFSET 0.00000 -18.01768 0.00000
			CHANNELS 3 Xrotation Yrotation Zrotation
			JOINT LeftFoot
			{
				OFFSET 0.00000 -16.88108 0.00000
				CHANNELS 3 Xrotation Yrotation Zrotation
				JOINT LeftToeBase
				{
					OFFSET 0.00000 -1.49359 5.57418
					CHANNELS 3 Xrotation Yrotation Zrotation
					End Site
					{
						OFFSET 0.00000 0.00000 2.95275
					}
				}
			}
		}
	}
	JOINT Spine
	{
		OFFSET 0.00000 7.77970 0.00000
		CHANNELS 3 Xrotation Yrotation Zrotation
		JOINT RightShoulder
		{
			OFFSET 0.00000 10.94176 0.00000
			CHANNELS 3 Xrotation Yrotation Zrotation
			JOINT RightArm
			{
				OFFSET -7.70894 0.00000 0.00000
				CHANNELS 3 Xrotation Yrotation Zrotation
				JOINT RightForeArm
				{
					OFFSET -11.52135 0.00000 0.00000
					CHANNELS 3 Yrotation Zrotation Xrotation
					JOINT RightHand
					{
						OFFSET -10.17590 0.00000 0.00000
						CHANNELS 3 Xrotation Yrotation Zrotation
						End Site
						{
							OFFSET -3.93700 0.00000 0.00000
						}
						JOINT RightHandThumb1
						{
							OFFSET 0.00000 0.00000 0.00000
							CHANNELS 3 Xrotation Zrotation Yrotation
							End Site
							{
								OFFSET 0.00000 0.00000 3.93700
							}
						}
					}
				}
			}
		}
		JOINT LeftShoulder
		{
			OFFSET 0.00000 10.94176 0.00000
			CHANNELS 3 Xrotation Yrotation Zrotation
			JOINT LeftArm
			{
				OFFSET 7.70894 0.00000 0.00000
				CHANNELS 3 Xrotation Yrotation Zrotation
				JOINT LeftForeArm
				{
					OFFSET 11.52135 0.00000 0.00000
					CHANNELS 3 Yrotation Zrotation Xrotation
					JOINT LeftHand
					{
						OFFSET 10.17590 0.00000 0.00000
						CHANNELS 3 Xrotation Yrotation Zrotation
						End Site
						{
							OFFSET 3.93700 0.00000 0.00000
						}
						JOINT LeftHandThumb1
						{
							OFFSET 0.00000 0.00000 0.00000
							CHANNELS 3 Xrotation Zrotation Yrotation
							End Site
							{
								OFFSET 0.00000 0.00000 3.93700
							}
						}
					}
				}
			}
		}
		JOINT Head
		{
			OFFSET 0.00000 16.64604 0.00000
			CHANNELS 3 Xrotation Yrotation Zrotation
			End Site
			{
				OFFSET 0.00000 4.52755 0.00000
			}
		}
	}
}
MOTION
Frames: 20
Frame Time: 0.008333
 -0.5428 6.3027 -7.4124 6.7508 -30.3165 41.4065 -102.1819 -43.4504 -0.8574 145.1882 -0.0000 -0.0000 30.8079 25.1086 -76.7712 65.7179 0.0000 -0.0000 6.9354 -30.4075 38.0652 153.1938 0.0000 -0.0000 31.2435 8.0165 -18.0321 10.6537 -0.0000 0.0000 36.7838 1.1500 -10.1348 18.9377 -10.6279 -32.4388 0.7065 3.5427 76.2952 61.1705 0.0000 -1.3746 28.8361 10.0436 -72.4241 32.8623 0.0000 -24.3270 38.7667 25.8557 -10.2096 -21.9239 -9.8832 -75.1611 -56.5918 -0.0000 22.5877 12.8211 27.4883 -26.2463 33.1476 -0.0000 26.2537 -11.8936 27.2391 -31.1081
 -0.5554 6.3083 -7.4086 6.8755 -30.3019 41.5569 -102.1651 -43.4561 -0.7378 145.1601 -0.0000 -0.0000 30.7924 24.9403 -76.6489 65.7238 0.0000 0.0000 6.9103 -30.4523 37.9821 153.2314 -0.0000 0.0000 31.3096 7.8578 -18.0042 10.4469 -0.0000 0.0000 36.6484 1.1915 -10.0213 18.9015 -10.8143 -32.5125 0.7362 3.5115 76.4206 61.4543 0.0000 -1.1323 28.9364 10.1308 -72.3511 32.8623 0.0000 -24.3270 38.7140 25.8552 -10.2033 -21.8839 -9.8465 -75.2737 -56.4875 -0.0000 22.6852 12.6788 27.5433 -25.9433 33.1476 -0.0000 26.2537 -11.8202 27.2330 -31.2181
 -0.5711 6.3129 -7.4094 7.0367 -30.2868 41.7020 -102.1139 -43.5667 -0.5635 145.0978 0.0000 -0.0000 30.8834 24.6581 -76.7691 65.9755 0.0000 0.0000 6.8035 -30.3961 37.9065 153.2648 -0.0000 0.0000 31.3215 8.0052 -18.1232 10.5077 0.0000 -0.0000 36.4726 1.2405 -9.9102 18.9276 -10.9978 -32.5838 0.6884 3.3900 76.5829 61.7614 0.0000 -0.7504 28.9366 10.0665 -72.4553 32.8623 0.0000 -24.3270 38.7215 25.8395 -10.2608 -21.8843 -9.7511 -75.3517 -56.4088 -0.0000 22.8145 12.6675 27.4065 -26.0261 33.1476 -0.0000 26.2537 -11.7576 27.1617 -31.3211
 -0.5893 6.3142 -7.4154 7.2819 -30.2880 41.8130 -102.0026 -44.0096 -0.2964 144.9801 -0.0000 -0.0000 30.9118 23.7187 -76.7621 65.9175 -0.0000 0.0000 6.7896 -30.3176 37.9711 153.2818 -0.0000 0.0000 31.2962 7.9752 -18.1411 10.5067 0.0000 -0.0000 36.2585 1.4451 -9.7618 18.8935 -11.1982 -32.6514 0.7207 3.2552 76.7558 62.0510 0.0000 -0.3772 28.9250 10.0670 -72.4467 32.8623 0.0000 -24.3270 38.8009 25.7861 -10.3380 -21.9699 -9.6984 -75.4331 -56.3084 -0.0000 23.1200 12.8111 27.3787 -26.3117 33.1476 -0.0000 26.2537 -11.6340 27.1120 -31.4633
 -0.6071 6.3169 -7.4133 7.4231 -30.2839 41.9345 -101.9538 -44.0037 -0.1118 144.9421 0.0000 0.0000 30.8704 23.6754 -76.6359 65.9909 -0.0000 0.0000 6.7872 -30.3147 37.9468 153.2881 -0.0000 -0.0000 31.3435 7.8558 -18.1241 10.2213 0.0000 -0.0000 36.0977 1.4932 -9.6658 18.8940 -11.3855 -32.7067 0.6639 3.2028 76.9108 62.2917 0.0000 -0.0647 28.8595 9.9768 -72.5486 32.8623 0.0000 -24.3270 38.8200 25.8631 -10.4134 -22.0385 -9.6865 -75.5251 -56.1483 -0.0000 23.1592 12.8093 27.4037 -26.2892 33.1476 -0.0000 26.2537 -11.5647 27.0869 -31.5113
 -0.6245 6.3188 -7.4059 7.5228 -30.2513 42.0542 -101.9675 -43.7297 -0.0576 144.9416 0.0000 -0.0000 30.8994 24.2717 -76.6411 66.2632 0.0000 -0.0000 6.7221 -30.2868 37.8661 153.2971 -0.0000 0.0000 31.3604 7.9766 -18.2108 10.2284 -0.0000 -0.0000 35.9306 1.5245 -9.5670 18.9299 -11.6118 -32.7461 0.5784 3.1311 77.0812 62.5150 0.0000 0.2199 28.8819 10.0124 -72.5060 32.8623 0.0000 -24.3270 38.8958 25.8743 -10.4785 -22.1172 -9.6263 -75.6170 -56.0571 -0.0000 23.2265 12.7318 27.4900 -26.0810 33.1476 -0.0000 26.2537 -11.4513 27.0202 -31.5797
 -0.6415 6.3214 -7.3977 7.6303 -30.2348 42.2101 -101.9499 -43.4396 0.0215 144.9381 -0.0000 -0.0000 30.9099 24.8477 -76.6511 66.5343 0.0000 0.0000 6.6425 -30.2377 37.7291 153.3026 0.0000 0.0000 31.3421 8.0584 -18.3097 10.2440 0.0000 0.0000 35.7815 1.5729 -9.5297 18.9793 -11.8972 -32.7621 0.4241 3.0598 77.2768 62.7016 0.0000 0.5766 28.8464 10.0260 -72.4597 32.8623 0.0000 -24.3270 38.8375 25.8954 -10.4600 -22.0875 -9.5856 -75.6875 -55.9365 -0.0000 23.3081 12.9758 27.4073 -26.5917 33.1476 -0.0000 26.2537 -11.3838 26.8930 -31.6195
 -0.6573 6.3265 -7.3932 7.7667 -30.2263 42.3655 -101.9034 -43.3864 0.1693 144.9096 -0.0000 -0.0000 30.8569 24.7959 -76.5076 66.4788 -0.0000 0.0000 6.5582 -30.1704 37.6067 153.3067 -0.0000 -0.0000 31.3531 8.1060 -18.3837 10.0696 0.0000 -0.0000 35.6097 1.5783 -9.4955 18.9563 -12.0336 -32.8007 0.3741 2.9755 77.4400 62.8845 0.0000 0.9308 28.8517 10.0329 -72.4521 32.8623 0.0000 -24.3270 38.6639 25.9275 -10.4096 -21.9261 -9.4133 -75.7834 -55.8608 -0.0000 23.6023 12.8060 27.3525 -26.3223 33.1476 -0.0000 26.2537 -11.3037 26.8670 -31.6302
 -0.6715 6.3312 -7.3896 7.9271 -30.2112 42.5145 -101.8666 -43.3170 0.3200 144.8729 -0.0000 0.0000 30.9083 24.9328 -76.5751 66.7629 -0.0000 0.0000 6.4732 -30.1063 37.5084 153.3152 0.0000 0.0000 31.3502 8.1145 -18.4012 9.9870 -0.0000 0.0000 35.4053 1.6335 -9.4324 18.9641 -12.2106 -32.8747 0.3074 2.9187 77.6179 63.0538 0.0000 1.2580 28.8688 10.0881 -72.3742 32.8623 0.0000 -24.3270 38.7787 25.8974 -10.5249 -22.0062 -9.3605 -75.8029 -55.7877 -0.0000 23.8138 12.7766 27.2837 -26.3212 33.1476 -0.0000 26.2537 -11.1733 26.7565 -31.7090
 -0.6844 6.3341 -7.3867 8.0556 -30.1902 42.6257 -101.8332 -43.2909 0.4440 144.8354 -0.0000 0.0000 30.9375 24.9964 -76.6319 67.1137 -0.0000 -0.0000 6.4123 -30.0523 37.4484 153.3192 -0.0000 0.0000 31.3601 8.1715 -18.4569 9.9991 -0.0000 -0.0000 35.2503 1.6749 -9.3680 18.9050 -12.3980 -32.9147 0.2505 2.9390 77.7272 63.1991 0.0000 1.4889 28.9529 10.0463 -72.4990 32.8623 0.0000 -24.3270 38.7184 25.9196 -10.5082 -21.9447 -9.2830 -75.9095 -55.6903 -0.0000 23.9198 12.6362 27.2922 -26.0555 33.1476 -0.0000 26.2537 -11.1430 26.6539 -31.7223
 -0.6974 6.3371 -7.3824 8.2034 -30.1753 42.7457 -101.7920 -43.3667 0.6007 144.7935 -0.0000 0.0000 30.8768 24.7214 -76.4800 67.0153 0.0000 0.0000 6.2950 -29.9546 37.3575 153.3108 -0.0000 -0.0000 31.4697 8.2745 -18.4368 9.8155 0.0000 0.0000 35.0650 1.7147 -9.3009 18.8497 -12.5500 -32.9930 0.2016 2.9573 77.8712 63.2993 0.0000 1.7568 28.9555 10.0186 -72.5457 32.8623 0.0000 -24.3270 38.6892 25.9194 -10.5623 -21.8986 -9.1753 -75.9407 -55.6392 -0.0000 24.1439 12.7698 27.2977 -26.2980 33.1476 -0.0000 26.2537 -11.0553 26.5559 -31.7727
 -0.7108 6.3407 -7.3784 8.3484 -30.1355 42.8747 -101.7968 -43.3190 0.7151 144.7620 0.0000 0.0000 30.9094 24.8191 -76.4984 67.2715 0.0000 -0.0000 6.1774 -29.8740 37.2665 153.3273 -0.0000 0.0000 31.4195 8.3933 -18.5586 10.0648 -0.0000 0.0000 34.8402 1.7197 -9.2431 18.8462 -12.6529 -33.0658 0.1629 2.9563 78.0120 63.4139 0.0000 2.0177 28.9187 10.0093 -72.5359 32.8623 0.0000 -24.3270 38.7428 25.9147 -10.6232 -21.9092 -9.1129 -75.9869 -55.5438 -0.0000 24.2432 12.7897 27.4439 -26.2225 33.1476 -0.0000 26.2537 -10.9226 26.4713 -31.8103
 -0.7189 6.3470 -7.3786 8.4872 -30.1017 43.0015 -101.7584 -43.6134 0.8789 144.6947 0.0000 -0.0000 30.9618 24.0116 -76.5418 67.3645 -0.0000 -0.0000 6.0430 -29.8225 37.1588 153.3598 -0.0000 -0.0000 31.4426 8.4710 -18.6981 10.0535 0.0000 -0.0000 34.6890 1.7326 -9.2111 18.8208 -12.8094 -33.0725 0.0986 3.0051 78.0561 63.5362 0.0000 2.1803 28.9594 10.0466 -72.5029 32.8623 0.0000 -24.3270 38.6745 25.9484 -10.6363 -21.8406 -9.0727 -76.0443 -55.4923 -0.0000 24.2476 12.9810 27.3777 -26.6240 33.1476 -0.0000 26.2537 -10.9237 26.3885 -31.7874
 -0.7305 6.3489 -7.3745 8.5941 -30.0793 43.0949 -101.7377 -43.6405 0.9840 144.6622 0.0000 0.0000 30.9218 23.8851 -76.4053 67.3646 0.0000 -0.0000 6.0008 -29.7772 37.1201 153.3684 -0.0000 0.0000 31.4499 8.4680 -18.8119 9.8960 -0.0000 0.0000 34.5183 1.7231 -9.1606 18.8347 -12.9036 -33.1285 0.0410 3.0998 78.1081 63.6045 0.0000 2.2903 29.0393 10.0173 -72.6042 32.8623 0.0000 -24.3270 38.7297 25.9659 -10.7049 -21.8711 -8.9924 -76.0893 -55.4027 -0.0000 24.4114 12.9026 27.3267 -26.5198 33.1476 -0.0000 26.2537 -10.9168 26.1435 -31.7741
 -0.7409 6.3539 -7.3696 8.7236 -30.0416 43.1953 -101.7395 -43.6092 1.0725 144.6339 -0.0000 -0.0000 30.9406 23.9309 -76.4201 67.5164 0.0000 -0.0000 5.8785 -29.7011 37.0420 153.3673 -0.0000 0.0000 31.4965 8.5382 -18.8695 9.9541 0.0000 -0.0000 34.2905 1.7144 -9.0777 18.9153 -12.9931 -33.1896 -0.0330 3.1071 78.1880 63.7447 0.0000 2.5184 28.9581 10.0422 -72.5093 32.8623 0.0000 -24.3270 38.8379 25.8849 -10.7980 -21.8875 -8.8620 -76.0986 -55.3394 -0.0000 24.5435 12.8671 27.3168 -26.4622 33.1476 -0.0000 26.2537 -10.7015 26.0839 -31.8255
 -0.7519 6.3564 -7.3644 8.7970 -30.0368 43.3001 -101.7143 -43.5168 1.1571 144.6201 0.0000 -0.0000 30.8936 24.0022 -76.2889 67.5177 -0.0000 0.0000 5.8353 -29.6737 36.9475 153.3629 -0.0000 -0.0000 31.4715 8.4830 -18.9014 10.1548 -0.0000 0.0000 34.1866 1.6889 -9.0869 18.8105 -13.0094 -33.2169 0.0466 3.1297 78.2188 63.8307 0.0000 2.7996 28.9703 10.0829 -72.4516 32.8623 0.0000 -24.3270 38.7683 25.9258 -10.7832 -21.8215 -8.8028 -76.1434 -55.2762 -0.0000 24.7426 13.0106 27.2441 -26.7822 33.1476 -0.0000 26.2537 -10.7335 25.8957 -31.7598
 -0.7621 6.3589 -7.3604 8.8811 -30.0499 43.3934 -101.6463 -43.5470 1.2848 144.5881 -0.0000 -0.0000 30.9517 23.8884 -76.3477 67.7231 -0.0000 0.0000 5.7791 -29.6046 36.8642 153.3636 0.0000 -0.0000 31.4665 8.5051 -18.9772 10.2023 -0.0000 0.0000 34.0816 1.6923 -9.0872 18.8563 -13.1211 -33.2101 -0.0362 3.1993 78.2319 63.9467 0.0000 2.9725 28.9093 10.1176 -72.3541 32.8623 0.0000 -24.3270 38.7696 25.9551 -10.7863 -21.8336 -8.7611 -76.2066 -55.1670 -0.0000 24.7812 12.9263 27.2289 -26.6393 33.1476 -0.0000 26.2537 -10.7283 25.7137 -31.6983
 -0.7728 6.3620 -7.3564 8.9940 -30.0512 43.4770 -101.6056 -43.5782 1.4049 144.5606 0.0000 0.0000 30.8787 23.7915 -76.1747 67.6652 0.0000 0.0000 5.6946 -29.5128 36.8038 153.3536 0.0000 -0.0000 31.4762 8.5685 -19.0900 10.1825 -0.0000 0.0000 33.9039 1.6926 -9.0442 18.9875 -13.2463 -33.2435 -0.2171 3.2886 78.2670 64.0076 0.0000 3.1165 28.9083 10.0962 -72.3880 32.8623 0.0000 -24.3270 38.8357 25.9191 -10.8299 -21.8394 -8.6693 -76.2453 -55.0833 -0.0000 24.8258 12.9127 27.2593 -26.5905 33.1476 -0.0000 26.2537 -10.5422 25.5893 -31.7072
 -0.7810 6.3616 -7.3537 9.0520 -30.0645 43.5393 -101.5496 -43.5646 1.5050 144.5384 0.0000 0.0000 30.9192 23.8223 -76.2517 67.9064 -0.0000 0.0000 5.6717 -29.4725 36.7656 153.3490 -0.0000 -0.0000 31.4875 8.6088 -19.2773 10.0800 0.0000 0.0000 33.8270 1.6525 -9.0347 18.9706 -13.3071 -33.2593 -0.2593 3.3978 78.2526 64.0961 0.0000 3.2231 28.9146 10.1283 -72.3403 32.8623 0.0000 -24.3270 38.8059 25.9705 -10.8207 -21.8103 -8.6106 -76.3193 -55.0112 -0.0000 24.8969 12.8967 27.3022 -26.5279 33.1476 -0.0000 26.2537 -10.5777 25.3968 -31.6554
 -0.7891 6.3616 -7.3520 9.1139 -30.0566 43.5930 -101.5235 -43.5514 1.5785 144.5170 -0.0000 0.0000 30.9038 23.8621 -76.2009 68.0054 0.0000 -0.0000 5.6230 -29.4396 36.7367 153.3478 0.0000 0.0000 31.4268 8.6431 -19.2325 10.1457 0.0000 -0.0000 33.7086 1.6024 -8.9941 18.9784 -13.3896 -33.3026 -0.3557 3.4968 78.2754 64.1564 0.0000 3.3470 28.9190 10.1737 -72.2700 32.8623 0.0000 -24.3270 38.7963 25.9795 -10.8322 -21.7740 -8.5192 -76.3640 -54.9404 -0.0000 24.9549 12.8751 27.3127 -26.4801 33.1476 -0.0000 26.2537 -10.5022 25.2679 -31.6834
